HIERARCHY
ROOT Hips
{
	OFFSET 0.00000 0.00000 0.00000
	CHANNELS 6 Xposition Yposition Zposition Zrotation Yrotation Xrotation 
	JOINT LHipJoint
	{
		OFFSET 0 0 0
		CHANNELS 3 Zrotation Yrotation Xrotation
		JOINT LeftUpLeg
		{
			OFFSET 1.84395 -1.68683 0.74144
			CHANNELS 3 Zrotation Yrotation Xrotation
			JOINT LeftLeg
			{
				OFFSET 2.27037 -6.23779 0.00000
				CHANNELS 3 Zrotation Yrotation Xrotation
				JOINT LeftFoot
				{
					OFFSET 2.56918 -7.05877 0.00000
					CHANNELS 3 Zrotation Yrotation Xrotation
					JOINT LeftToeBase
					{
						OFFSET 0.22276 -0.61202 1.71784
						CHANNELS 3 Zrotation Yrotation Xrotation
						End Site
						{
							OFFSET 0.00000 -0.00000 0.91613
						}
					}
				}
			}
		}
	}
	JOINT RHipJoint
	{
		OFFSET 0 0 0
		CHANNELS 3 Zrotation Yrotation Xrotation
		JOINT RightUpLeg
		{
			OFFSET -1.76833 -1.68684 0.74144
			CHANNELS 3 Zrotation Yrotation Xrotation
			JOINT RightLeg
			{
				OFFSET -2.49360 -6.85110 0.00000
				CHANNELS 3 Zrotation Yrotation Xrotation
				JOINT RightFoot
				{
					OFFSET -2.55538 -7.02085 0.00000
					CHANNELS 3 Zrotation Yrotation Xrotation
					JOINT RightToeBase
					{
						OFFSET -0.21516 -0.59115 1.68050
						CHANNELS 3 Zrotation Yrotation Xrotation
						End Site
						{
							OFFSET -0.00000 -0.00000 0.89604
						}
					}
				}
			}
		}
	}
	JOINT LowerBack
	{
		OFFSET 0 0 0
		CHANNELS 3 Zrotation Yrotation Xrotation
		JOINT Spine
		{
			OFFSET 0.06382 1.72312 -0.19613
			CHANNELS 3 Zrotation Yrotation Xrotation
			JOINT Spine1
			{
				OFFSET -0.00055 1.73507 0.23859
				CHANNELS 3 Zrotation Yrotation Xrotation
				JOINT Neck
				{
					OFFSET 0 0 0
					CHANNELS 3 Zrotation Yrotation Xrotation
					JOINT Neck1
					{
						OFFSET 0.03638 1.65562 0.09633
						CHANNELS 3 Zrotation Yrotation Xrotation
						JOINT Head
						{
							OFFSET 0.06388 1.62807 -0.32386
							CHANNELS 3 Zrotation Yrotation Xrotation
							End Site
							{
								OFFSET 0.00995 1.67644 -0.12021
							}
						}
					}
				}
				JOINT LeftShoulder
				{
					OFFSET 0 0 0
					CHANNELS 3 Zrotation Yrotation Xrotation
					JOINT LeftArm
					{
						OFFSET 3.09648 1.42991 0.28122
						CHANNELS 3 Zrotation Yrotation Xrotation
						JOINT LeftForeArm
						{
							OFFSET 5.11878 -0.00000 -0.00000
							CHANNELS 3 Zrotation Yrotation Xrotation
							JOINT LeftHand
							{
								OFFSET 3.59971 -0.00000 0.00000
								CHANNELS 3 Zrotation Yrotation Xrotation
								JOINT LeftFingerBase
								{
									OFFSET 0 0 0
									CHANNELS 3 Zrotation Yrotation Xrotation
									JOINT LeftHandIndex1
									{
										OFFSET 0.62877 -0.00000 0.00000
										CHANNELS 3 Zrotation Yrotation Xrotation
										End Site
										{
											OFFSET 0.50693 -0.00000 0.00000
										}
									}
								}
								JOINT LThumb
								{
									OFFSET 0 0 0
									CHANNELS 3 Zrotation Yrotation Xrotation
									End Site
									{
										OFFSET 0.51467 -0.00000 0.51467
									}
								}
							}
						}
					}
				}
				JOINT RightShoulder
				{
					OFFSET 0 0 0
					CHANNELS 3 Zrotation Yrotation Xrotation
					JOINT RightArm
					{
						OFFSET -3.33565 1.14597 0.05047
						CHANNELS 3 Zrotation Yrotation Xrotation
						JOINT RightForeArm
						{
							OFFSET -5.49020 -0.00000 0.00000
							CHANNELS 3 Zrotation Yrotation Xrotation
							JOINT RightHand
							{
								OFFSET -3.20659 -0.00000 -0.00000
								CHANNELS 3 Zrotation Yrotation Xrotation
								JOINT RightFingerBase
								{
									OFFSET 0 0 0
									CHANNELS 3 Zrotation Yrotation Xrotation
									JOINT RightHandIndex1
									{
										OFFSET -0.69188 -0.00000 0.00000
										CHANNELS 3 Zrotation Yrotation Xrotation
										End Site
										{
											OFFSET -0.55781 -0.00000 0.00000
										}
									}
								}
								JOINT RThumb
								{
									OFFSET 0 0 0
									CHANNELS 3 Zrotation Yrotation Xrotation
									End Site
									{
										OFFSET -0.56633 -0.00000 0.56633
									}
								}
							}
						}
					}
				}
			}
		}
	}
}
MOTION
Frames: 16
Frame Time: .0083333
-0.0057 17.5423 8.4612 0 0 0 0 0 0 -21 0 0 0 0 0 0 0 0 0 0 0 0 0 0 21 0 0 0 0 0 0 0 0 0 0 0 0 0 0 0 0 0 0 0 0 0 0 -16 0 0 21 0 0 11 0 0 0 -8 0 0 0 0 0 0 0 0 0 0 0 0 0 0 0 0 0 0 0 0 8 0 0 0 0 0 0 0 0 0 0 0 0 0 0 0 0 0
-0.0057 17.5423 8.4612 -8.7774 2.5154 11.6718 0.0000 0.0000 0.0000 -18.5200 -47.5107 24.2561 0.0508 -1.4547 -4.0010 -4.2213 44.1233 -49.5366 0.7949 5.6911 15.8906 0.0000 0.0000 0.0000 26.9398 26.1901 4.7726 -0.0023 -0.3118 0.8568 1.1176 -23.0900 -23.7910 -0.1689 -2.6477 7.2993 6.0024 0.5676 -1.9283 1.9779 1.2253 -11.5552 -1.3028 0.1438 -11.2428 -12.2974 -13.5550 2.1317 12.1646 -20.5828 18.1432 4.2878 -10.0865 7.7940 0.0000 -0.0000 0.0000 -91.8232 11.2152 17.5532 11.9430 -19.7191 -2.0830 -0.0000 -0.0000 24.3448 10.1039 -9.2196 -1.6354 -7.1250 0.0000 -0.0000 -12.0342 20.7047 7.1594 0.0000 -0.0000 0.0000 90.2691 -9.9355 13.0383 -12.6081 20.7104 -2.3129 0.0000 0.0000 36.9013 -21.6695 -31.9602 11.8773 7.1250 -0.0000 -0.0000 12.7400 -63.4176 -5.7395
-0.0055 17.5424 8.4613 -8.7615 2.5125 11.6749 0.0000 0.0000 0.0000 -18.5494 -47.5220 24.2642 0.0506 -1.4516 -3.9922 -4.1408 44.0483 -49.6385 0.8172 5.7684 16.1138 0.0000 0.0000 0.0000 26.9216 26.1980 4.7751 -0.0024 -0.3145 0.8640 1.1178 -23.0921 -23.7932 -0.1676 -2.6372 7.2703 5.9970 0.5669 -1.9100 1.9787 1.2268 -11.5727 -1.2989 0.1441 -11.2743 -12.3101 -13.5507 2.1157 12.1175 -20.5735 18.2027 4.2736 -10.0838 7.8116 -0.0000 0.0000 0.0000 -91.8260 11.2381 17.5137 11.9376 -19.7110 -2.0812 -0.0000 -0.0000 24.4220 10.1062 -9.2385 -1.6391 -7.1250 0.0000 -0.0000 -12.0315 20.6858 7.1629 -0.0000 0.0000 0.0000 90.2791 -9.9900 12.9800 -12.6100 20.7131 -2.3135 0.0000 0.0000 37.0141 -21.5498 -31.9538 11.8050 7.1250 -0.0000 -0.0000 12.8745 -63.3794 -5.7896
-0.0055 17.5425 8.4617 -8.7408 2.4979 11.6806 0.0000 0.0000 0.0000 -18.5674 -47.5173 24.2477 0.0503 -1.4472 -3.9803 -4.1200 44.0277 -49.6626 0.8227 5.7872 16.1681 0.0000 0.0000 0.0000 26.8889 26.1947 4.7644 -0.0025 -0.3198 0.8787 1.0985 -23.0209 -23.8416 -0.1805 -2.7365 7.5459 5.9980 0.5839 -1.9025 1.9583 1.2485 -11.5690 -1.3233 0.1534 -11.2725 -12.2261 -13.5716 1.9915 11.9946 -20.5832 18.3156 4.2104 -10.0824 7.8494 0.0000 -0.0000 0.0000 -91.7971 11.1909 17.4302 11.9126 -19.6734 -2.0728 -0.0000 -0.0000 24.6309 10.0878 -9.3993 -1.6642 -7.1250 0.0000 -0.0000 -12.0351 20.5269 7.2093 0.0000 -0.0000 0.0000 90.3181 -10.0226 12.9279 -12.6424 20.7610 -2.3250 0.0000 0.0000 37.0406 -21.4153 -31.9175 11.7147 7.1250 -0.0000 -0.0000 13.0032 -63.3082 -5.8268
-0.0055 17.5425 8.4619 -8.7254 2.4889 11.6902 0.0000 0.0000 0.0000 -18.5511 -47.4966 24.2056 0.0505 -1.4498 -3.9874 -4.1442 44.0428 -49.6169 0.8187 5.7735 16.1286 0.0000 0.0000 0.0000 26.8661 26.2089 4.7557 -0.0024 -0.3181 0.8739 1.1009 -23.0282 -23.8318 -0.1837 -2.7602 7.6119 6.0100 0.6051 -1.8994 1.9293 1.2751 -11.5611 -1.3634 0.1639 -11.2625 -12.1037 -13.5951 1.8400 11.8489 -20.5912 18.4327 4.1328 -10.0779 7.8863 0.0000 -0.0000 0.0000 -91.7577 11.1529 17.4406 11.9169 -19.6799 -2.0742 -0.0000 -0.0000 24.7274 10.1290 -9.4198 -1.6748 -7.1250 0.0000 -0.0000 -12.0047 20.5049 7.1964 0.0000 -0.0000 0.0000 90.3624 -10.0480 12.9178 -12.6670 20.7974 -2.3337 0.0000 0.0000 36.9663 -21.4191 -31.9603 11.7306 7.1250 -0.0000 -0.0000 13.0315 -63.3513 -5.8529
-0.0054 17.5427 8.4619 -8.7114 2.4854 11.6955 0.0000 0.0000 0.0000 -18.6135 -47.5559 24.2652 0.0503 -1.4470 -3.9796 -4.0390 43.9793 -49.8176 0.8496 5.8787 16.4329 0.0000 0.0000 0.0000 26.8533 26.2367 4.7642 -0.0023 -0.3116 0.8563 1.1275 -23.1137 -23.7386 -0.1673 -2.6354 7.2652 6.0143 0.6075 -1.9001 1.9160 1.2772 -11.5613 -1.3803 0.1636 -11.2618 -12.0477 -13.5944 1.7535 11.7732 -20.5775 18.5028 4.0951 -10.0671 7.9084 -0.0000 -0.0000 0.0000 -91.7322 11.1723 17.5185 11.9507 -19.7307 -2.0856 -0.0000 -0.0000 24.6527 10.2300 -9.3294 -1.6758 -7.1250 0.0000 -0.0000 -11.9384 20.5909 7.1312 -0.0000 -0.0000 0.0000 90.4024 -10.0936 12.8678 -12.6642 20.7933 -2.3327 0.0000 0.0000 37.0120 -21.3897 -32.0332 11.7366 7.1250 -0.0000 -0.0000 13.1216 -63.4150 -5.9136
-0.0051 17.5426 8.4618 -8.7150 2.4870 11.6951 0.0000 0.0000 0.0000 -18.6138 -47.5547 24.2646 0.0501 -1.4444 -3.9725 -4.0717 44.0074 -49.7716 0.8374 5.8373 16.3132 0.0000 0.0000 0.0000 26.8489 26.2021 4.7469 -0.0023 -0.3112 0.8549 1.1299 -23.1008 -23.6871 -0.1607 -2.5829 7.1195 6.0425 0.6027 -1.9001 1.9064 1.2697 -11.5358 -1.4060 0.1577 -11.2323 -12.0027 -13.5909 1.6116 11.7703 -20.5681 18.5583 4.0773 -10.0520 7.9450 -0.0000 0.0000 0.0000 -91.7072 11.1001 17.4891 11.9388 -19.7127 -2.0816 -0.0000 -0.0000 24.6581 10.2787 -9.3448 -1.6867 -7.1250 0.0000 -0.0000 -11.9030 20.5737 7.1138 -0.0000 0.0000 0.0000 90.4575 -10.0598 12.7827 -12.6381 20.7546 -2.3235 0.0000 0.0000 37.1049 -21.2616 -32.1227 11.6898 7.1250 -0.0000 -0.0000 13.3401 -63.4685 -6.0306
-0.0057 17.5422 8.4619 -8.7268 2.4939 11.6894 0.0000 0.0000 0.0000 -18.5164 -47.4553 24.1564 0.0503 -1.4477 -3.9817 -4.1716 44.0394 -49.5252 0.8053 5.7272 15.9948 0.0000 0.0000 0.0000 26.8604 26.1693 4.7273 -0.0025 -0.3203 0.8799 1.1135 -23.0424 -23.7324 -0.1660 -2.6250 7.2364 6.0682 0.6001 -1.8888 1.8968 1.2663 -11.5162 -1.4305 0.1536 -11.2165 -11.9808 -13.5744 1.4908 11.8334 -20.5555 18.6123 4.0857 -10.0335 7.9867 -0.0000 -0.0000 0.0000 -91.6746 11.0303 17.4688 11.9234 -19.6896 -2.0764 -0.0000 -0.0000 24.6553 10.1908 -9.3170 -1.6670 -7.1250 0.0000 -0.0000 -11.9669 20.6047 7.1452 -0.0000 -0.0000 0.0000 90.5300 -10.0515 12.7131 -12.6356 20.7509 -2.3226 0.0000 0.0000 37.0962 -21.0178 -32.2887 11.5986 7.1250 -0.0000 -0.0000 13.7537 -63.5659 -6.2525
-0.0069 17.5427 8.4614 -8.7208 2.5049 11.6779 0.0000 0.0000 0.0000 -18.6093 -47.5537 24.2597 0.0493 -1.4326 -3.9399 -4.0930 44.0174 -49.7256 0.8228 5.7875 16.1691 0.0000 0.0000 0.0000 26.8719 26.2006 4.7437 -0.0026 -0.3283 0.9021 1.1138 -23.0610 -23.7682 -0.1686 -2.6451 7.2921 6.0599 0.5939 -1.8621 1.8925 1.2595 -11.5182 -1.4304 0.1502 -11.2352 -11.9987 -13.5509 1.4541 11.9107 -20.5389 18.6390 4.1118 -10.0194 8.0102 -0.0000 -0.0000 0.0000 -91.6473 11.0346 17.5349 11.9380 -19.7116 -2.0813 -0.0000 -0.0000 24.5661 10.0735 -9.2354 -1.6331 -7.1250 0.0000 -0.0000 -12.0549 20.6901 7.1763 -0.0000 -0.0000 0.0000 90.6077 -10.1229 12.6032 -12.6789 20.8149 -2.3379 0.0000 0.0000 37.1607 -20.4322 -32.5595 11.3369 7.1250 -0.0000 -0.0000 14.6509 -63.6729 -6.7056
-0.0077 17.5436 8.4598 -8.7110 2.5203 11.6745 0.0000 0.0000 0.0000 -18.5858 -47.5530 24.2139 0.0488 -1.4259 -3.9214 -4.0335 43.9410 -49.7600 0.8388 5.8420 16.3268 0.0000 0.0000 0.0000 26.8708 26.2338 4.7495 -0.0027 -0.3350 0.9204 1.1164 -23.0834 -23.7896 -0.1727 -2.6767 7.3800 6.0590 0.5894 -1.8208 1.8838 1.2570 -11.5324 -1.4393 0.1473 -11.2769 -12.0251 -13.5372 1.4526 11.9735 -20.5330 18.6444 4.1360 -10.0140 8.0212 0.0000 0.0000 0.0000 -91.6321 11.0556 17.5603 11.9485 -19.7273 -2.0849 -0.0000 -0.0000 24.5566 10.0358 -9.1731 -1.6160 -7.1250 0.0000 -0.0000 -12.0853 20.7532 7.1776 0.0000 0.0000 0.0000 90.6567 -10.1984 12.5694 -12.7358 20.8989 -2.3582 0.0000 0.0000 37.1812 -19.4120 -32.8143 10.8114 7.1250 -0.0000 -0.0000 16.0379 -63.6461 -7.3461
-0.0081 17.5437 8.4587 -8.7096 2.5292 11.6806 0.0000 0.0000 0.0000 -18.4451 -47.4349 24.0267 0.0488 -1.4255 -3.9204 -4.0271 43.8349 -49.5735 0.8431 5.8568 16.3696 0.0000 0.0000 0.0000 26.8599 26.2235 4.7252 -0.0027 -0.3380 0.9286 1.1154 -23.0722 -23.7758 -0.1753 -2.6972 7.4367 6.0868 0.6019 -1.7885 1.8588 1.2774 -11.5619 -1.4833 0.1512 -11.3292 -12.0602 -13.5285 1.5328 12.0618 -20.5391 18.5962 4.1752 -10.0185 8.0055 -0.0000 0.0000 0.0000 -91.5974 11.0963 17.6106 11.9542 -19.7359 -2.0868 -0.0000 -0.0000 24.5844 10.0224 -9.1152 -1.6037 -7.1250 0.0000 -0.0000 -12.0983 20.8111 7.1695 -0.0000 0.0000 0.0000 90.7158 -10.2828 12.5171 -12.7844 20.9706 -2.3756 0.0000 0.0000 37.1720 -17.8846 -33.0533 9.9821 7.1250 -0.0000 -0.0000 17.9813 -63.4679 -8.1889
-0.0081 17.5437 8.4584 -8.7107 2.5338 11.6836 0.0000 0.0000 0.0000 -18.4244 -47.4300 24.0042 0.0489 -1.4266 -3.9234 -4.0678 43.8566 -49.4891 0.8365 5.8344 16.3048 0.0000 0.0000 0.0000 26.8473 26.1841 4.6961 -0.0027 -0.3362 0.9236 1.1145 -23.0492 -23.7369 -0.1742 -2.6885 7.4126 6.1174 0.6184 -1.7785 1.8379 1.3013 -11.5787 -1.5247 0.1577 -11.3529 -12.0804 -13.5270 1.6282 12.1523 -20.5498 18.4918 4.2145 -10.0260 7.9676 -0.0000 -0.0000 0.0000 -91.5810 11.0768 17.5738 11.9215 -19.6868 -2.0758 -0.0000 -0.0000 24.7112 10.0482 -9.2362 -1.6291 -7.1250 0.0000 -0.0000 -12.0728 20.6902 7.1874 -0.0000 -0.0000 0.0000 90.7658 -10.3376 12.4519 -12.8299 21.0375 -2.3919 0.0000 0.0000 37.1683 -15.7953 -33.4251 8.8569 7.1250 -0.0000 -0.0000 20.6521 -63.2651 -9.3568
-0.0084 17.5439 8.4577 -8.6777 2.5353 11.6732 0.0000 0.0000 0.0000 -18.4703 -47.4226 24.0339 0.0498 -1.4402 -3.9610 -4.0872 43.8840 -49.4823 0.8336 5.8245 16.2760 0.0000 0.0000 0.0000 26.8100 26.1632 4.7001 -0.0027 -0.3346 0.9193 1.1075 -23.0331 -23.7742 -0.1758 -2.7011 7.4476 6.0934 0.6125 -1.7536 1.8241 1.2934 -11.5842 -1.5258 0.1547 -11.3746 -12.0078 -13.5367 1.6567 12.1390 -20.5566 18.4259 4.2028 -10.0284 7.9321 -0.0000 0.0000 0.0000 -91.5851 11.0478 17.4593 11.8893 -19.6384 -2.0649 -0.0000 -0.0000 24.8634 10.0856 -9.4401 -1.6710 -7.1250 0.0000 -0.0000 -12.0342 20.4865 7.2200 -0.0000 0.0000 0.0000 90.7730 -10.3597 12.5606 -12.8730 21.1009 -2.4074 0.0000 0.0000 36.9952 -13.3223 -33.8755 7.5190 7.1250 -0.0000 -0.0000 23.7868 -63.0303 -10.7240
-0.0086 17.5439 8.4574 -8.6344 2.5329 11.6610 0.0000 0.0000 0.0000 -18.5474 -47.4215 24.0641 0.0497 -1.4383 -3.9558 -4.0536 43.8608 -49.5416 0.8371 5.8364 16.3105 0.0000 0.0000 0.0000 26.7683 26.1613 4.7175 -0.0027 -0.3366 0.9249 1.0960 -23.0145 -23.8530 -0.1818 -2.7462 7.5730 6.0573 0.6013 -1.7203 1.8053 1.2782 -11.5951 -1.5252 0.1485 -11.4082 -11.9993 -13.5435 1.6743 12.1223 -20.5646 18.4232 4.1967 -10.0338 7.9265 -0.0000 0.0000 0.0000 -91.5651 11.0683 17.4655 11.9009 -19.6559 -2.0688 -0.0000 -0.0000 24.8397 10.0033 -9.3865 -1.6478 -7.1250 0.0000 -0.0000 -12.0956 20.5428 7.2428 -0.0000 0.0000 0.0000 90.7764 -10.3735 12.7150 -12.8984 21.1382 -2.4165 0.0000 0.0000 36.7934 -10.6459 -34.2999 6.0467 7.1250 -0.0000 -0.0000 27.0710 -62.7149 -12.1117
-0.0086 17.5442 8.4574 -8.6620 2.5395 11.6665 0.0000 0.0000 0.0000 -18.4734 -47.3930 23.9957 0.0490 -1.4288 -3.9295 -4.0486 43.8228 -49.4828 0.8320 5.8192 16.2606 0.0000 0.0000 0.0000 26.7988 26.1613 4.7107 -0.0028 -0.3392 0.9321 1.0945 -23.0091 -23.8579 -0.1791 -2.7259 7.5165 6.1065 0.6082 -1.7138 1.7994 1.2904 -11.6066 -1.5598 0.1487 -11.4248 -11.9678 -13.5346 1.6222 12.0912 -20.5525 18.4985 4.1791 -10.0239 7.9521 -0.0000 0.0000 0.0000 -91.5552 11.0567 17.4820 11.8988 -19.6527 -2.0681 -0.0000 -0.0000 24.7677 9.9058 -9.1953 -1.5985 -7.1250 0.0000 -0.0000 -12.1761 20.7360 7.2389 -0.0000 0.0000 0.0000 90.7551 -10.3695 12.8433 -12.8975 21.1368 -2.4162 0.0000 0.0000 36.7135 -7.8013 -34.7305 4.4632 7.1250 -0.0000 -0.0000 30.4861 -62.3579 -13.5279
-0.0090 17.5449 8.4569 -8.6970 2.5478 11.6685 0.0000 0.0000 0.0000 -18.4502 -47.4367 24.0125 0.0483 -1.4189 -3.9023 -3.9949 43.7867 -49.5796 0.8459 5.8661 16.3964 0.0000 0.0000 0.0000 26.8405 26.1580 4.7118 -0.0027 -0.3337 0.9168 1.1096 -23.0490 -23.7866 -0.1661 -2.6259 7.2388 6.1450 0.6107 -1.7091 1.8079 1.2972 -11.6122 -1.5724 0.1484 -11.4343 -11.9918 -13.5544 1.6109 12.0748 -20.5769 18.5093 4.1726 -10.0373 7.9619 0.0000 0.0000 0.0000 -91.5622 11.0599 17.4951 11.9059 -19.6633 -2.0705 -0.0000 -0.0000 24.7019 9.9320 -9.1504 -1.5951 -7.1250 0.0000 -0.0000 -12.1602 20.7795 7.2168 0.0000 0.0000 0.0000 90.7175 -10.3548 12.9166 -12.8667 21.0916 -2.4051 0.0000 0.0000 36.8488 -4.8909 -35.1109 2.8177 7.1250 -0.0000 -0.0000 33.8566 -61.9387 -14.8683
